<mxfile host="app.diagrams.net" modified="2020-09-23T19:13:14.532Z" agent="5.0 (Windows NT 10.0; Win64; x64) AppleWebKit/537.36 (KHTML, like Gecko) Chrome/85.0.4183.102 Safari/537.36" etag="9E9qtzwsMQnvWC9FYnwj" version="13.7.3" type="github">
  <diagram id="KpJJAmNpPaAGGB6vX-ww" name="Page-1">
    <mxGraphModel dx="746" dy="706" grid="1" gridSize="10" guides="1" tooltips="1" connect="1" arrows="1" fold="1" page="1" pageScale="1" pageWidth="1100" pageHeight="850" math="0" shadow="0">
      <root>
        <mxCell id="0" />
        <mxCell id="1" parent="0" />
        <mxCell id="xtcxQLwSn-vZ5DbQoUyI-1" value="Student" style="whiteSpace=wrap;html=1;align=center;" vertex="1" parent="1">
          <mxGeometry x="440" y="600" width="80" height="40" as="geometry" />
        </mxCell>
        <mxCell id="xtcxQLwSn-vZ5DbQoUyI-6" style="edgeStyle=none;rounded=0;orthogonalLoop=1;jettySize=auto;html=1;exitX=0;exitY=0.5;exitDx=0;exitDy=0;entryX=1;entryY=0.5;entryDx=0;entryDy=0;endArrow=none;endFill=0;" edge="1" parent="1" source="xtcxQLwSn-vZ5DbQoUyI-2" target="xtcxQLwSn-vZ5DbQoUyI-4">
          <mxGeometry relative="1" as="geometry" />
        </mxCell>
        <mxCell id="xtcxQLwSn-vZ5DbQoUyI-15" style="edgeStyle=none;rounded=0;orthogonalLoop=1;jettySize=auto;html=1;exitX=0.5;exitY=0;exitDx=0;exitDy=0;entryX=0.5;entryY=1;entryDx=0;entryDy=0;endArrow=none;endFill=0;" edge="1" parent="1" source="xtcxQLwSn-vZ5DbQoUyI-2" target="xtcxQLwSn-vZ5DbQoUyI-11">
          <mxGeometry relative="1" as="geometry" />
        </mxCell>
        <mxCell id="xtcxQLwSn-vZ5DbQoUyI-17" style="edgeStyle=none;rounded=0;orthogonalLoop=1;jettySize=auto;html=1;exitX=0.5;exitY=0;exitDx=0;exitDy=0;entryX=0.5;entryY=1;entryDx=0;entryDy=0;endArrow=none;endFill=0;" edge="1" parent="1" source="xtcxQLwSn-vZ5DbQoUyI-2" target="xtcxQLwSn-vZ5DbQoUyI-16">
          <mxGeometry relative="1" as="geometry" />
        </mxCell>
        <mxCell id="xtcxQLwSn-vZ5DbQoUyI-2" value="College" style="ellipse;shape=doubleEllipse;margin=3;whiteSpace=wrap;html=1;align=center;" vertex="1" parent="1">
          <mxGeometry x="440" y="480" width="80" height="40" as="geometry" />
        </mxCell>
        <mxCell id="xtcxQLwSn-vZ5DbQoUyI-4" value="College Name" style="ellipse;whiteSpace=wrap;html=1;align=center;" vertex="1" parent="1">
          <mxGeometry x="320" y="480" width="80" height="40" as="geometry" />
        </mxCell>
        <mxCell id="xtcxQLwSn-vZ5DbQoUyI-10" style="edgeStyle=none;rounded=0;orthogonalLoop=1;jettySize=auto;html=1;exitX=0;exitY=0.5;exitDx=0;exitDy=0;endArrow=none;endFill=0;" edge="1" parent="1" source="xtcxQLwSn-vZ5DbQoUyI-7">
          <mxGeometry relative="1" as="geometry">
            <mxPoint x="520" y="500" as="targetPoint" />
          </mxGeometry>
        </mxCell>
        <mxCell id="xtcxQLwSn-vZ5DbQoUyI-7" value="Start Date" style="ellipse;whiteSpace=wrap;html=1;align=center;" vertex="1" parent="1">
          <mxGeometry x="560" y="490" width="80" height="40" as="geometry" />
        </mxCell>
        <mxCell id="xtcxQLwSn-vZ5DbQoUyI-9" style="edgeStyle=none;rounded=0;orthogonalLoop=1;jettySize=auto;html=1;exitX=0;exitY=0.5;exitDx=0;exitDy=0;entryX=1;entryY=0.5;entryDx=0;entryDy=0;endArrow=none;endFill=0;" edge="1" parent="1" source="xtcxQLwSn-vZ5DbQoUyI-8" target="xtcxQLwSn-vZ5DbQoUyI-2">
          <mxGeometry relative="1" as="geometry" />
        </mxCell>
        <mxCell id="xtcxQLwSn-vZ5DbQoUyI-8" value="End Date" style="ellipse;whiteSpace=wrap;html=1;align=center;" vertex="1" parent="1">
          <mxGeometry x="560" y="540" width="80" height="40" as="geometry" />
        </mxCell>
        <mxCell id="xtcxQLwSn-vZ5DbQoUyI-23" style="edgeStyle=none;rounded=0;orthogonalLoop=1;jettySize=auto;html=1;exitX=0.5;exitY=0;exitDx=0;exitDy=0;entryX=0.5;entryY=1;entryDx=0;entryDy=0;endArrow=none;endFill=0;" edge="1" parent="1" source="xtcxQLwSn-vZ5DbQoUyI-11" target="xtcxQLwSn-vZ5DbQoUyI-20">
          <mxGeometry relative="1" as="geometry" />
        </mxCell>
        <mxCell id="xtcxQLwSn-vZ5DbQoUyI-24" style="edgeStyle=none;rounded=0;orthogonalLoop=1;jettySize=auto;html=1;exitX=0;exitY=0.5;exitDx=0;exitDy=0;entryX=1;entryY=0.5;entryDx=0;entryDy=0;endArrow=none;endFill=0;" edge="1" parent="1" source="xtcxQLwSn-vZ5DbQoUyI-11" target="xtcxQLwSn-vZ5DbQoUyI-21">
          <mxGeometry relative="1" as="geometry" />
        </mxCell>
        <mxCell id="xtcxQLwSn-vZ5DbQoUyI-11" value="Degree" style="ellipse;shape=doubleEllipse;margin=3;whiteSpace=wrap;html=1;align=center;" vertex="1" parent="1">
          <mxGeometry x="380" y="400" width="80" height="40" as="geometry" />
        </mxCell>
        <mxCell id="xtcxQLwSn-vZ5DbQoUyI-13" style="edgeStyle=none;rounded=0;orthogonalLoop=1;jettySize=auto;html=1;exitX=0.5;exitY=1;exitDx=0;exitDy=0;entryX=0.5;entryY=0;entryDx=0;entryDy=0;endArrow=none;endFill=0;" edge="1" parent="1" source="xtcxQLwSn-vZ5DbQoUyI-12" target="xtcxQLwSn-vZ5DbQoUyI-1">
          <mxGeometry relative="1" as="geometry" />
        </mxCell>
        <mxCell id="xtcxQLwSn-vZ5DbQoUyI-14" style="edgeStyle=none;rounded=0;orthogonalLoop=1;jettySize=auto;html=1;exitX=0.5;exitY=0;exitDx=0;exitDy=0;entryX=0.5;entryY=1;entryDx=0;entryDy=0;endArrow=none;endFill=0;" edge="1" parent="1" source="xtcxQLwSn-vZ5DbQoUyI-12" target="xtcxQLwSn-vZ5DbQoUyI-2">
          <mxGeometry relative="1" as="geometry" />
        </mxCell>
        <mxCell id="xtcxQLwSn-vZ5DbQoUyI-12" value="College Education" style="ellipse;whiteSpace=wrap;html=1;align=center;" vertex="1" parent="1">
          <mxGeometry x="440" y="540" width="80" height="40" as="geometry" />
        </mxCell>
        <mxCell id="xtcxQLwSn-vZ5DbQoUyI-26" style="edgeStyle=none;rounded=0;orthogonalLoop=1;jettySize=auto;html=1;exitX=0.5;exitY=0;exitDx=0;exitDy=0;entryX=0.5;entryY=1;entryDx=0;entryDy=0;endArrow=none;endFill=0;" edge="1" parent="1" source="xtcxQLwSn-vZ5DbQoUyI-16" target="xtcxQLwSn-vZ5DbQoUyI-25">
          <mxGeometry relative="1" as="geometry" />
        </mxCell>
        <mxCell id="xtcxQLwSn-vZ5DbQoUyI-28" style="edgeStyle=none;rounded=0;orthogonalLoop=1;jettySize=auto;html=1;exitX=0.5;exitY=0;exitDx=0;exitDy=0;entryX=0.5;entryY=1;entryDx=0;entryDy=0;endArrow=none;endFill=0;" edge="1" parent="1" source="xtcxQLwSn-vZ5DbQoUyI-16" target="xtcxQLwSn-vZ5DbQoUyI-27">
          <mxGeometry relative="1" as="geometry" />
        </mxCell>
        <mxCell id="xtcxQLwSn-vZ5DbQoUyI-16" value="Transcript" style="ellipse;shape=doubleEllipse;margin=3;whiteSpace=wrap;html=1;align=center;" vertex="1" parent="1">
          <mxGeometry x="500" y="400" width="80" height="40" as="geometry" />
        </mxCell>
        <mxCell id="xtcxQLwSn-vZ5DbQoUyI-19" style="edgeStyle=none;rounded=0;orthogonalLoop=1;jettySize=auto;html=1;exitX=1;exitY=0.5;exitDx=0;exitDy=0;entryX=0;entryY=0.5;entryDx=0;entryDy=0;endArrow=none;endFill=0;" edge="1" parent="1" source="xtcxQLwSn-vZ5DbQoUyI-18" target="xtcxQLwSn-vZ5DbQoUyI-11">
          <mxGeometry relative="1" as="geometry" />
        </mxCell>
        <mxCell id="xtcxQLwSn-vZ5DbQoUyI-18" value="Name" style="ellipse;whiteSpace=wrap;html=1;align=center;" vertex="1" parent="1">
          <mxGeometry x="280" y="420" width="80" height="40" as="geometry" />
        </mxCell>
        <mxCell id="xtcxQLwSn-vZ5DbQoUyI-20" value="Year" style="ellipse;whiteSpace=wrap;html=1;align=center;" vertex="1" parent="1">
          <mxGeometry x="380" y="350" width="80" height="40" as="geometry" />
        </mxCell>
        <mxCell id="xtcxQLwSn-vZ5DbQoUyI-21" value="Month" style="ellipse;whiteSpace=wrap;html=1;align=center;" vertex="1" parent="1">
          <mxGeometry x="280" y="360" width="80" height="40" as="geometry" />
        </mxCell>
        <mxCell id="xtcxQLwSn-vZ5DbQoUyI-25" value="Name" style="ellipse;whiteSpace=wrap;html=1;align=center;" vertex="1" parent="1">
          <mxGeometry x="460" y="310" width="80" height="40" as="geometry" />
        </mxCell>
        <mxCell id="xtcxQLwSn-vZ5DbQoUyI-27" value="Semester" style="ellipse;whiteSpace=wrap;html=1;align=center;" vertex="1" parent="1">
          <mxGeometry x="560" y="310" width="80" height="40" as="geometry" />
        </mxCell>
        <mxCell id="xtcxQLwSn-vZ5DbQoUyI-32" style="edgeStyle=none;rounded=0;orthogonalLoop=1;jettySize=auto;html=1;exitX=0;exitY=0.5;exitDx=0;exitDy=0;entryX=1;entryY=0;entryDx=0;entryDy=0;endArrow=none;endFill=0;" edge="1" parent="1" source="xtcxQLwSn-vZ5DbQoUyI-29" target="xtcxQLwSn-vZ5DbQoUyI-16">
          <mxGeometry relative="1" as="geometry" />
        </mxCell>
        <mxCell id="xtcxQLwSn-vZ5DbQoUyI-29" value="Year" style="ellipse;whiteSpace=wrap;html=1;align=center;" vertex="1" parent="1">
          <mxGeometry x="580" y="370" width="80" height="40" as="geometry" />
        </mxCell>
        <mxCell id="xtcxQLwSn-vZ5DbQoUyI-31" style="edgeStyle=none;rounded=0;orthogonalLoop=1;jettySize=auto;html=1;exitX=0;exitY=0.5;exitDx=0;exitDy=0;entryX=1;entryY=1;entryDx=0;entryDy=0;endArrow=none;endFill=0;" edge="1" parent="1" source="xtcxQLwSn-vZ5DbQoUyI-30" target="xtcxQLwSn-vZ5DbQoUyI-16">
          <mxGeometry relative="1" as="geometry" />
        </mxCell>
        <mxCell id="xtcxQLwSn-vZ5DbQoUyI-30" value="Grade" style="ellipse;whiteSpace=wrap;html=1;align=center;" vertex="1" parent="1">
          <mxGeometry x="580" y="425" width="80" height="40" as="geometry" />
        </mxCell>
      </root>
    </mxGraphModel>
  </diagram>
</mxfile>
